<svg xmlns="http://www.w3.org/2000/svg" viewBox="0 0 48 48" width="96" height="96"><path fill="#64b5f6" d="M24,42c-9.9,0-18-8.1-18-18c0-9.9,8.1-18,18-18c9.9,0,18,8.1,18,18C42,33.9,33.9,42,24,42z M24,10 c-7.7,0-14,6.3-14,14s6.3,14,14,14s14-6.3,14-14S31.7,10,24,10z"/><path fill="#2196f3" d="M22 3H26V13H22zM22 35H26V45H22zM3 22H13V26H3zM35 22H45V26H35z"/><path fill="#ff3d00" d="M29.3,26.9L27.2,29l-8.5-8.5l2.1-2.1L29.3,26.9z"/><path fill="#ff3d00" d="M20.8,29l-2.1-2.1l8.5-8.5l2.1,2.1L20.8,29z"/></svg>
