<svg height='300px' width='300px'  fill="#F08080" xmlns="http://www.w3.org/2000/svg" version="1.1" x="0px" y="0px" viewBox="0 0 50 50" enable-background="new 0 0 50 50" xml:space="preserve"><g><g><path fill="#F08080" d="M38.611,4.546C38.611,5.981,37.535,7,35.92,7H3.365C1.75,7,1.228,6.079,1.066,5    C0.793,3.182,1.75,2,3.365,2H35.92C37.535,2,38.611,3.109,38.611,4.546z"></path><g><polygon fill="#F08080" points="37.775,9 1.567,9 16,26.969 16,45.21 23,39.661 23,26.97    "></polygon><path fill="#F08080" d="M25.425,34.444c-3.906,0-7.084-3.14-7.084-6.998s3.178-6.997,7.084-6.997     c3.907,0,7.084,3.139,7.084,6.997S29.332,34.444,25.425,34.444z M25.425,23.184c-2.398,0-4.35,1.912-4.35,4.263     s1.951,4.264,4.35,4.264c2.399,0,4.35-1.913,4.35-4.264S27.824,23.184,25.425,23.184z"></path></g></g><rect x="34" y="34" fill="#F08080" width="15" height="2"></rect><rect x="34" y="38" fill="#F08080" width="15" height="2"></rect><rect x="34" y="42" fill="#F08080" width="15" height="2"></rect><rect x="34" y="46" fill="#F08080" width="15" height="2"></rect></g></svg>
